name symmetric_stride_kinematics_IKTD_Plus_6.mot
datacolumns 38
datarows 12
range 1.56620770 1.57873736
endheader
                time	/jointset/ground_pelvis/pelvis_tilt/value	/jointset/ground_pelvis/pelvis_list/value	/jointset/ground_pelvis/pelvis_rotation/value	/jointset/ground_pelvis/pelvis_tx/value	/jointset/ground_pelvis/pelvis_ty/value	/jointset/ground_pelvis/pelvis_tz/value	/jointset/hip_r/hip_flexion_r/value	/jointset/hip_r/hip_adduction_r/value	/jointset/hip_r/hip_rotation_r/value	/jointset/knee_r/knee_angle_r/value	/jointset/ankle_r/ankle_angle_r/value	/jointset/subtalar_r/subtalar_angle_r/value	/jointset/mtp_r/mtp_angle_r/value	/jointset/hip_l/hip_flexion_l/value	/jointset/hip_l/hip_adduction_l/value	/jointset/hip_l/hip_rotation_l/value	/jointset/knee_l/knee_angle_l/value	/jointset/ankle_l/ankle_angle_l/value	/jointset/subtalar_l/subtalar_angle_l/value	/jointset/mtp_l/mtp_angle_l/value	/jointset/back/lumbar_extension/value	/jointset/back/lumbar_bending/value	/jointset/back/lumbar_rotation/value	/jointset/acromial_r/arm_flex_r/value	/jointset/acromial_r/arm_add_r/value	/jointset/acromial_r/arm_rot_r/value	/jointset/elbow_r/elbow_flex_r/value	/jointset/radioulnar_r/pro_sup_r/value	/jointset/radius_hand_r/wrist_flex_r/value	/jointset/radius_hand_r/wrist_dev_r/value	/jointset/acromial_l/arm_flex_l/value	/jointset/acromial_l/arm_add_l/value	/jointset/acromial_l/arm_rot_l/value	/jointset/elbow_l/elbow_flex_l/value	/jointset/radioulnar_l/pro_sup_l/value	/jointset/radius_hand_l/wrist_flex_l/value	/jointset/radius_hand_l/wrist_dev_l/value	
          1.56620770	         -8.58568615	         -6.80473097	         19.24556138	         18.53650321	          0.96467318	          0.30886199	         82.05755373	        -12.52002157	         -1.92330080	       -106.16423974	         -3.54314870	        -22.35279160	         15.66675282	         -4.14780309	        -15.50282405	          9.80768976	        -51.42332147	        -30.53553249	        -15.02642882	         -8.21058223	        -11.33044777	          5.37081869	        -11.02399086	        -74.17455956	         -5.01615625	         -0.17662371	         68.99406124	         77.16062179	        -30.14858857	          7.34704956	         89.99704212	          0.52593803	         -0.02639014	        101.52859370	         86.47912520	         -9.35155534	          8.01195296	
          1.56685528	         -8.58745401	         -6.81365889	         19.21637728	         18.54392281	          0.96488919	          0.30899704	         82.08207495	        -12.55919117	         -1.93908326	       -105.43401435	         -3.74918679	        -22.35861351	         15.66678319	         -4.15950179	        -15.50477660	          9.86711952	        -51.86996934	        -30.63582683	        -14.89915253	         -8.06581462	        -11.37560097	          5.44564705	        -11.00868477	        -74.07331233	         -4.90999052	         -0.21233849	         68.43711254	         76.88666410	        -30.17794530	          7.35138297	         90.00000000	          0.59888555	         -0.04055789	        101.56701495	         86.49390601	         -9.28263732	          7.99198644	
          1.56890137	         -8.59651431	         -6.85105341	         19.11519218	         18.56732570	          0.96560016	          0.30942488	         82.10296084	        -12.66927772	         -2.01799737	       -103.06991886	         -4.41069898	        -22.38117608	         15.66682923	         -4.17285245	        -15.50983722	         10.04199348	        -53.29466246	        -30.90167858	        -14.51098449	         -7.62193392	        -11.51818000	          5.69576728	        -10.95670379	        -73.72561677	         -4.60627745	         -0.33152598	         66.75069461	         76.04338869	        -30.26555454	          7.35384746	         89.94773824	          0.78605896	         -0.11001820	        101.76406693	         86.53812485	         -9.07489611	          7.92889750	
          1.57038426	         -8.60492501	         -6.88219097	         19.03238112	         18.58425262	          0.96614565	          0.30973392	         82.06318288	        -12.73561567	         -2.09812143	       -101.30462961	         -4.89952517	        -22.40041585	         15.66674640	         -4.16521691	        -15.50877800	         10.15323292	        -54.33619010	        -31.03776742	        -14.26784307	         -7.31642292	        -11.62463948	          5.88493089	        -10.91550337	        -73.44823700	         -4.41425437	         -0.43041147	         65.59808142	         75.45433409	        -30.32413793	          7.34589498	         89.85221320	          0.88058862	         -0.18490916	        101.97553508	         86.56831064	         -8.93427882	          7.88317540	
          1.57038426	         -8.60492501	         -6.88219097	         19.03238112	         18.58425262	          0.96614565	          0.30973392	         82.06318288	        -12.73561567	         -2.09812143	       -101.30462961	         -4.89952517	        -22.40041585	         15.66674640	         -4.16521691	        -15.50877800	         10.15323292	        -54.33619010	        -31.03776742	        -14.26784307	         -7.31642292	        -11.62463948	          5.88493089	        -10.91550337	        -73.44823700	         -4.41425437	         -0.43041147	         65.59808142	         75.45433409	        -30.32413793	          7.34589498	         89.85221320	          0.88058862	         -0.18490916	        101.97553508	         86.56831064	         -8.93427882	          7.88317540	
          1.57103183	         -8.60863611	         -6.89566631	         18.99355741	         18.59163658	          0.96639270	          0.30986811	         82.03098176	        -12.76098266	         -2.13798858	       -100.52066992	         -5.11519896	        -22.40921972	         15.66673870	         -4.15864252	        -15.50617674	         10.19702841	        -54.79243752	        -31.08062570	        -14.17725744	         -7.18834870	        -11.67283984	          5.96832904	        -10.89658668	        -73.32065939	         -4.33728755	         -0.47845496	         65.11308627	         75.20317494	        -30.34841827	          7.34009011	         89.79562096	          0.91102806	         -0.22388690	        102.08481700	         86.58113138	         -8.87561460	          7.86320883	
          1.57307792	         -8.61430420	         -6.93174144	         18.85912628	         18.61494040	          0.96721788	          0.31028663	         81.86365211	        -12.82556051	         -2.27905002	        -97.99485308	         -5.80116899	        -22.43376411	         15.66628418	         -4.13602126	        -15.48617853	         10.31249256	        -56.23417775	        -31.15376457	        -13.97318814	         -6.81023310	        -11.84071516	          6.23005220	        -10.83194656	        -72.89296363	         -4.11631395	         -0.66583793	         63.65401220	         74.43584808	        -30.41989543	          7.31294909	         89.56051704	          0.96389329	         -0.37432967	        102.48653375	         86.61962010	         -8.70168999	          7.80011880	
          1.57456081	         -8.60437739	         -6.94806913	         18.75101816	         18.63181084	          0.96786902	          0.31058331	         81.67179626	        -12.85656245	         -2.39363823	        -96.12306350	         -6.29400932	        -22.44042447	         15.66617861	         -4.12916778	        -15.46060696	         10.37306528	        -57.27460118	        -31.15737768	        -13.90119405	         -6.56949300	        -11.98708396	          6.41609620	        -10.77978217	        -72.55987082	         -3.97531084	         -0.84139294	         62.66616531	         73.90654573	        -30.46665819	          7.28541073	         89.34022563	          0.96108379	         -0.50640048	        102.81969019	         86.64533725	         -8.58673804	          7.75439895	
          1.57456081	         -8.60437739	         -6.94806913	         18.75101816	         18.63181084	          0.96786902	          0.31058331	         81.67179626	        -12.85656245	         -2.39363823	        -96.12306350	         -6.29400932	        -22.44042447	         15.66617861	         -4.12916778	        -15.46060696	         10.37306528	        -57.27460118	        -31.15737768	        -13.90119405	         -6.56949300	        -11.98708396	          6.41609620	        -10.77978217	        -72.55987082	         -3.97531084	         -0.84139294	         62.66616531	         73.90654573	        -30.46665819	          7.28541073	         89.34022563	          0.96108379	         -0.50640048	        102.81969019	         86.64533725	         -8.58673804	          7.75439895	
          1.57520839	         -8.59433969	         -6.95174632	         18.70117900	         18.63917480	          0.96816996	          0.31071084	         81.56743968	        -12.86574250	         -2.44644579	        -95.29617621	         -6.50590388	        -22.43842522	         15.66684122	         -4.13137623	        -15.44657583	         10.39318546	        -57.72665495	        -31.14838190	        -13.88869066	         -6.47532066	        -12.05989009	          6.49592316	        -10.75551117	        -72.40831911	         -3.91851508	         -0.92939517	         62.25312371	         73.68162592	        -30.48575997	          7.27194529	         89.23161573	          0.94901515	         -0.56927200	        102.97401497	         86.65582276	         -8.53953957	          7.73444192	
          1.57725447	         -8.53161908	         -6.94741413	         18.53578462	         18.66243375	          0.96919649	          0.31110573	         81.14772018	        -12.87787408	         -2.62350050	        -92.65209711	         -7.15152904	        -22.40319803	         15.66679756	         -4.16826690	        -15.39257766	         10.43332118	        -59.14233143	        -31.09042079	        -13.90615140	         -6.23021452	        -12.33444086	          6.74181744	        -10.67324148	        -71.90587167	         -3.75508876	         -1.26102286	         61.02139352	         73.01033591	        -30.54050498	          7.21952388	         88.84420638	          0.86757221	         -0.77663790	        103.47774773	         86.68563711	         -8.40269129	          7.67135838	
          1.57873736	         -8.45429266	         -6.92904223	         18.41292934	         18.67928512	          0.97001379	          0.31138735	         80.75705443	        -12.87417170	         -2.76126619	        -90.71209200	         -7.59034553	        -22.34605184	         15.66649926	         -4.22369954	        -15.34592186	         10.44563447	        -60.15601640	        -31.02559646	        -13.94818891	         -6.10833573	        -12.57743184	          6.91426520	        -10.61197276	        -71.51912302	         -3.65428915	         -1.54434297	         60.19831293	         72.55355366	        -30.57494944	          7.17629498	         88.52300345	          0.76742355	         -0.92536277	        103.85162685	         86.70308951	         -8.31519734	          7.62564277	
